<svg xmlns="http://www.w3.org/2000/svg" width="19" height="18" viewBox="0 0 19 18" fill="none"><path d="M8.06973 0.028694C5.45284 0.420307 2.83594 1.75179 1.61603 4.04273L1.77344 4.16022C5.19705 0.674856 10.8047 0.870663 14.3267 4.04273C16.0975 5.47212 17.3371 7.37145 17.1403 9.5449C16.7075 15.4583 9.17158 19.766 4.05585 16.0065C-0.528641 12.11 2.26534 3.94483 7.53848 1.96718L7.49913 1.77137C3.48524 1.98676 0.376451 6.02038 0.0813118 9.87777C-1.02054 17.5926 9.34867 20.0206 14.6612 16.2415C23.4563 10.4456 17.6716 -0.637049 8.06973 0.028694Z" fill="white"></path><path d="M7.14529 14.4008L7.28302 14.5378C10.2738 13.4609 11.5133 10.6021 13.5006 8.52656C11.3953 6.94052 9.21126 5.41323 7.02724 3.90552L6.90918 4.06216C8.3652 5.58946 9.84089 7.09717 11.3559 8.5853C9.44737 10.1909 8.03071 12.0119 7.14529 14.4008Z" fill="white"></path></svg>